<svg width="191" height="51" viewBox="0 0 191 51" fill="none" xmlns="http://www.w3.org/2000/svg">
<path d="M152.161 51.0002V47.9352H153.211V47.4502H150.531V47.9352H151.576V51.0002H152.161Z" fill="#292B3F"/>
<path d="M154.182 51.0002V48.1202L155.207 51.0002H155.697L156.717 48.1252V51.0002H157.277V47.4502H156.452L155.462 50.2802L154.467 47.4502H153.612V51.0002H154.182Z" fill="#292B3F"/>
<path d="M11.2011 49.5375C16.2272 49.5375 19.8532 46.9764 19.8532 42.4946V42.0677C19.8532 39.3289 18.2018 37.0524 15.4374 36.1987C17.5555 35.2383 18.7044 33.3175 18.7044 31.1477V30.7565C18.7044 26.3102 15.4374 24.2827 10.4113 24.2827H0V49.5375H11.2011ZM4.0927 27.6974H10.0882C12.9602 27.6974 14.504 28.6223 14.504 31.0766V31.4679C14.504 33.6732 13.1756 34.9537 10.1959 34.9537H4.0927V27.6974ZM4.0927 38.3685H11.0575C14.0373 38.3685 15.6169 39.6134 15.6169 41.961V42.4235C15.6169 44.8778 13.75 46.1227 10.878 46.1227H4.0927V38.3685Z" fill="#292B3F"/>
<path d="M26.62 49.9999C29.2766 49.9999 31.5384 48.7549 32.6872 46.6919L32.8308 49.5375H36.4568V37.0879C36.4568 33.2819 33.7642 30.792 28.9894 30.792C24.4659 30.792 21.4502 32.9618 21.1271 36.7322H24.8967C25.0762 34.8826 26.62 33.8511 28.9176 33.8511C31.2512 33.8511 32.6513 34.9182 32.6513 36.9457V38.2618L25.3634 39.3289C22.2041 39.7557 20.4091 41.6765 20.4091 44.5932C20.4091 47.7234 22.8145 49.9999 26.62 49.9999ZM27.5175 46.9053C25.4352 46.9053 24.2505 45.9449 24.2505 44.4154C24.2505 42.9926 25.0403 42.21 26.7277 41.961L32.6513 41.1429V42.8147C32.6513 45.1979 30.2818 46.9053 27.5175 46.9053Z" fill="#292B3F"/>
<path d="M46.2042 49.9999C47.1376 49.9999 48.3941 49.822 49.2199 49.573V46.4429C48.6813 46.6207 47.7479 46.7986 46.9581 46.7986C44.7681 46.7986 44.086 45.9805 44.086 44.1664V34.1712H49.1122V31.2189H44.086V25.4921H40.1369V31.2189H36.5468V34.1712H40.1369V44.5932C40.1369 48.1502 42.1474 49.9999 46.2042 49.9999Z" fill="#292B3F"/>
<path d="M58.468 49.9999C59.4014 49.9999 60.6579 49.822 61.4837 49.573V46.4429C60.9451 46.6207 60.0117 46.7986 59.2219 46.7986C57.032 46.7986 56.3498 45.9805 56.3498 44.1664V34.1712H61.376V31.2189H56.3498V25.4921H52.4007V31.2189H48.8106V34.1712H52.4007V44.5932C52.4007 48.1502 54.4112 49.9999 58.468 49.9999Z" fill="#292B3F"/>
<path d="M62.7242 25.4926V49.5375H66.6733V25.4926H62.7242Z" fill="#292B3F"/>
<path d="M77.2543 49.9999C81.8855 49.9999 84.9729 47.6523 85.8705 43.8107H81.9214C81.3829 45.6603 79.8391 46.8697 77.2543 46.8697C74.1309 46.8697 72.3358 44.9134 72.1563 41.2496H85.9782C86.2654 34.9893 83.3215 30.792 77.2543 30.792C71.5819 30.792 68.0995 34.5625 68.0995 40.1114V40.6449C68.0995 46.1939 71.5101 49.9999 77.2543 49.9999ZM72.2281 38.4396C72.6589 35.4517 74.3463 33.8866 77.2184 33.8866C80.1263 33.8866 81.6342 35.594 81.9214 38.4396H72.2281Z" fill="#292B3F"/>
<path d="M91.7002 49.5375V39.9335H97.9469C103.081 39.9335 106.671 37.3014 106.671 32.3927V31.8236C106.671 26.9149 103.081 24.2827 97.9469 24.2827H87.5716V49.5375H91.7002ZM91.7002 27.7686H97.6238C100.496 27.7686 102.399 29.0491 102.399 31.8236V32.3927C102.399 35.1672 100.496 36.4477 97.6238 36.4477H91.7002V27.7686Z" fill="#292B3F"/>
<path d="M115.14 49.9999C119.771 49.9999 122.858 47.6523 123.756 43.8107H119.807C119.268 45.6603 117.724 46.8697 115.14 46.8697C112.016 46.8697 110.221 44.9134 110.042 41.2496H123.863C124.151 34.9893 121.207 30.792 115.14 30.792C109.467 30.792 105.985 34.5625 105.985 40.1114V40.6449C105.985 46.1939 109.395 49.9999 115.14 49.9999ZM110.113 38.4396C110.544 35.4517 112.232 33.8866 115.104 33.8866C118.012 33.8866 119.519 35.594 119.807 38.4396H110.113Z" fill="#292B3F"/>
<path d="M133.714 49.9999C138.345 49.9999 141.433 47.6523 142.33 43.8107H138.381C137.843 45.6603 136.299 46.8697 133.714 46.8697C130.591 46.8697 128.796 44.9134 128.616 41.2496H142.438C142.725 34.9893 139.781 30.792 133.714 30.792C128.042 30.792 124.559 34.5625 124.559 40.1114V40.6449C124.559 46.1939 127.97 49.9999 133.714 49.9999ZM128.688 38.4396C129.119 35.4517 130.806 33.8866 133.678 33.8866C136.586 33.8866 138.094 35.594 138.381 38.4396H128.688Z" fill="#292B3F"/>
<path d="M147.801 49.5375V40.2181C147.801 36.59 149.811 34.7047 153.15 34.7047C153.581 34.7047 154.012 34.7403 154.371 34.7759V30.9699C154.048 30.8987 153.653 30.8632 153.366 30.8632C150.709 30.8632 148.77 32.4283 147.765 34.7759L147.657 31.2189H143.852V49.5375H147.801Z" fill="#292B3F"/>
<path d="M186.018 31.8457L190.885 17.9494C191.343 16.6422 190.373 15.2744 188.987 15.2744H171.269C169.987 15.2744 168.845 16.0842 168.422 17.2937C166.162 23.7466 163.807 30.168 161.498 36.6035C160.928 38.2963 162.887 39.7097 164.314 38.6361L170.66 33.865H183.171C184.453 33.865 185.595 33.0552 186.018 31.8457Z" fill="#058BB6"/>
<mask id="mask0_1_10978" style="mask-type:alpha" maskUnits="userSpaceOnUse" x="161" y="15" width="30" height="25">
<path d="M186.018 31.8457L190.885 17.9494C191.343 16.6422 190.373 15.2744 188.987 15.2744H171.269C169.987 15.2744 168.845 16.0842 168.422 17.2937C166.162 23.7466 163.807 30.168 161.498 36.6035C160.928 38.2963 162.887 39.7097 164.314 38.6361L170.66 33.865H183.171C184.453 33.865 185.595 33.0552 186.018 31.8457Z" fill="#4E5DE4"/>
</mask>
<g mask="url(#mask0_1_10978)">
<g style="mix-blend-mode:soft-light" opacity="0.9">
<path d="M157.829 16.5746C160.834 8.40745 162.614 8.70401 168.346 8.704H180.594C181.995 8.704 182.967 10.1013 182.479 11.4148L177.365 25.1764C176.926 26.3581 175.798 27.142 174.537 27.142H165.247C165.233 27.1421 165.218 27.1422 165.204 27.1422C165.19 27.1422 165.175 27.1421 165.161 27.142H156.834C155.432 27.142 154.46 25.7447 154.949 24.4312L157.604 17.2847C157.667 17.0477 157.742 16.8109 157.829 16.5746Z" fill="#292B3F"/>
</g>
</g>
<path d="M154.988 13.9258L159.727 1.04556C160.2 -0.239175 161.965 -0.372454 162.625 0.826706L165.505 6.05517H177.753C179.154 6.05517 180.126 7.45248 179.638 8.76597L174.524 22.5276C174.085 23.7092 172.957 24.4932 171.696 24.4932H162.406C162.392 24.4933 162.377 24.4933 162.363 24.4933C162.348 24.4933 162.334 24.4933 162.32 24.4932H153.993C152.591 24.4932 151.619 23.0959 152.107 21.7824L154.763 14.6359C154.826 14.3989 154.901 14.162 154.988 13.9258Z" fill="#5FD1BD"/>
<path d="M154.988 13.9258L159.727 1.04556C160.2 -0.239175 161.965 -0.372454 162.625 0.826706L165.505 6.05517H177.753C179.154 6.05517 180.126 7.45248 179.638 8.76597L174.524 22.5276C174.085 23.7092 172.957 24.4932 171.696 24.4932H162.406C162.392 24.4933 162.377 24.4933 162.363 24.4933C162.348 24.4933 162.334 24.4933 162.32 24.4932H153.993C152.591 24.4932 151.619 23.0959 152.107 21.7824L154.763 14.6359C154.826 14.3989 154.901 14.162 154.988 13.9258Z" fill="#5FD1BD"/>
</svg>
